<svg width="101" height="115" viewBox="0 0 101 115" fill="none" xmlns="http://www.w3.org/2000/svg">
<path fill-rule="evenodd" clip-rule="evenodd" d="M30.0359 11.4698L35.6912 12.9149C47.2818 15.8764 58.3886 20.3472 68.7026 26.2018C79.0123 32.0543 88.4991 39.272 96.8994 47.6545L101 51.7457L101 28.8077L100.136 28.1019C100.136 28.1019 100.056 28.0364 100.015 28.0016C92.8398 21.9213 85.1214 16.522 77.0733 11.9536C69.0249 7.38486 60.4097 3.51243 51.4642 0.442606C51.4087 0.423853 51.2956 0.382664 51.2956 0.382664L50.2419 0L30.0359 11.4698ZM71.0968 22.1242C62.055 16.9914 52.4273 12.8863 42.4047 9.88553L50.7073 5.17252C59.0741 8.09819 67.1354 11.7491 74.6788 16.0314C82.2157 20.3093 89.4566 25.3432 96.211 30.9976L96.2105 40.4241C88.5603 33.3959 80.1344 27.2544 71.0968 22.1242ZM1.20897 27.8333L0 28.5332L0.0325901 32.2422L2.51156 32.24C21.5104 32.24 40.2641 37.1854 56.7496 46.543C73.2651 55.9182 87.0171 69.4448 96.5184 85.6614L97.7291 87.7007L101 85.8358V62.8646L100.478 62.221C90.6644 50.1105 78.7684 40.0418 65.1207 32.2948C51.4695 24.5458 36.6493 19.4504 21.0719 17.1504L20.2444 17.0282L1.20897 27.8333ZM59.1441 42.4655C44.3314 34.057 27.7665 29.0611 10.7913 27.8309L21.1847 21.9312C35.8651 24.1994 49.8377 29.0564 62.7262 36.3722C75.6112 43.6866 86.8735 53.1531 96.2105 64.5157V76.3193C86.6397 62.4802 73.9566 50.8737 59.1441 42.4655ZM0.0122466 41.1836L0.0116393 59.5424L2.40863 59.5402C2.43464 59.5399 2.45883 59.5399 2.48474 59.5399C16.6293 59.5399 30.5915 63.2221 42.8644 70.1885C55.1602 77.1683 65.3982 87.2388 72.4718 99.3117L73.6685 101.353L89.839 92.1741L88.6449 90.1359C79.9373 75.2752 67.3356 62.879 52.2015 54.2884C37.0941 45.7127 19.9096 41.1815 2.4979 41.1815L0.0122466 41.1836ZM45.259 66.1109C32.9281 59.1112 18.9899 55.2425 4.80097 54.8627L4.80117 45.9175C20.5816 46.2984 36.0943 50.5818 49.8072 58.3657C63.5207 66.1505 75.049 77.2158 83.2747 90.4635L75.3959 94.9358C67.9666 83.0451 57.5889 73.1101 45.259 66.1109ZM0.0122466 68.484L0.0116393 86.8358L2.4476 86.8338C11.737 86.8338 20.9105 89.2543 28.9795 93.8343C37.059 98.4206 43.7855 105.034 48.4311 112.959L49.628 115L65.7924 105.824L64.5983 103.786C58.3184 93.0688 49.2304 84.129 38.3164 77.9338C27.4216 71.7496 15.0292 68.4817 2.47179 68.4817L0.0122466 68.484ZM31.374 89.7564C23.2598 85.1506 14.1209 82.5483 4.80097 82.1727L4.80117 73.2307C15.7167 73.6072 26.4296 76.6231 35.9221 82.0116C45.415 87.4003 53.4274 95.0128 59.217 104.119L51.3405 108.591C46.3494 100.844 39.4873 94.3623 31.374 89.7564Z" fill="white"/>
</svg>
