<svg width="1080" height="1080" viewBox="0 0 1080 1080" fill="none" xmlns="http://www.w3.org/2000/svg">
<rect width="1080" height="1080" fill="white"/>
<path fill-rule="evenodd" clip-rule="evenodd" d="M672.724 312.976C579.846 260.016 482.342 222.043 383.137 198.388L540 109C607.591 133.069 674.339 163.522 738.653 200.195C802.968 236.869 863.099 278.827 918 324.604L917.997 503.373C847.651 430.348 765.602 365.936 672.724 312.976ZM543.391 149.524C603.551 171.872 662.596 199.34 720.013 232.08C777.431 264.821 831.039 301.589 880.717 341.873L880.716 416.413C823.602 365.919 760.376 320.443 691.363 281.091C622.35 241.739 550.862 210.398 478.03 186.795L543.391 149.524Z" fill="#E87156" fill-opacity="0.6"/>
<path fill-rule="evenodd" clip-rule="evenodd" d="M162 324.482L297.214 247.373C414.621 266.9 530.59 307.115 639.756 369.369C748.923 431.623 842.171 510.7 917.995 601.355V755.558L883.156 775.423C808.121 657.967 703.943 556.336 573.828 482.152C443.711 407.952 302.514 369.662 162 364.211V324.482ZM304.121 285.957L223.835 331.74C350.066 344.773 475.562 383.606 592.467 450.268C709.372 516.93 806.167 604.852 880.716 706.292V614.741C809.223 531.579 722.256 458.922 621.117 401.252C519.978 343.583 412.785 305.528 304.121 285.957Z" fill="#E87156" fill-opacity="0.6"/>
<path fill-rule="evenodd" clip-rule="evenodd" d="M162 429.375V559.716C268.809 565.108 375.983 594.891 474.935 651.326C573.886 707.747 653.591 784.518 711.728 873.175L826.019 808.012C756.598 700.136 660.58 606.806 540.862 538.543C421.145 470.28 291.302 434.811 162 429.375ZM199.278 525.584V468.737C309.804 478.802 419.886 512.067 522.223 570.427C624.561 628.787 708.771 706.307 772.858 795.802L723.02 824.233C663.954 743.054 586.893 672.646 493.574 619.442C400.255 566.225 299.991 535.516 199.278 525.584Z" fill="#E87156" fill-opacity="0.6"/>
<path fill-rule="evenodd" clip-rule="evenodd" d="M170.966 625.525C263.611 631.99 356.2 658.805 441.969 707.718C530.501 758.188 602.022 826.657 654.521 905.793L540.171 971C498.967 911.038 443.784 859.128 376.041 820.5C308.297 781.858 235.189 760.627 162 755.367V624.952L170.966 625.525ZM199.278 665.211V722.249C266.264 731.388 332.571 753.192 394.68 788.602C456.792 824.027 509.069 869.839 550.576 922.558L600.578 894.039C553.959 833.078 494.478 780.168 423.33 739.601C352.182 699.034 276.05 674.6 199.278 665.211Z" fill="#E87156" fill-opacity="0.6"/>
</svg>
